<svg width="240" height="240" viewBox="0 0 240 240" fill="none" xmlns="http://www.w3.org/2000/svg">
<path d="M137.676 47.7231L110.515 20L105.014 25.3964L132.176 53.1195L137.676 47.7231ZM120.975 45.8409L88.3734 24.7957L84.3232 31.0832L116.935 52.1184L120.985 45.8308L120.975 45.8409ZM153.587 53.2897L133.246 20.2203L126.485 24.3852L146.826 57.4547L153.587 53.2897ZM89.7135 52.669L51.3016 47.2125L50.3215 54.1508L88.7334 59.6073L89.7135 52.669ZM76.5828 67.5668L76.1128 60.8087L37.4209 63.522L37.8909 70.28L76.5828 67.5668ZM46.4813 116.665L23.7002 148.093L28.4104 151.517L51.1916 120.09L46.4813 116.665ZM104.834 47.5629L68.4524 34.0968L65.9423 40.8849L102.324 54.351L104.834 47.5629ZM167.437 62.0001L154.757 25.2963L147.026 27.9695L159.707 64.6733L167.437 62.0001ZM178.948 73.3137L174.338 34.7576L165.987 35.7588L170.598 74.3149L178.948 73.3137ZM192.389 132.104L218.56 103.44L216.7 101.738L190.529 130.402L192.389 132.104ZM196.019 118.097L215.45 84.487L207.549 79.9115L188.118 113.522L196.019 118.097ZM186.608 145.65L188.178 147.913L220 125.716L218.43 123.454L186.608 145.65ZM191.379 48.0935L182.768 47.2926L179.178 85.9588L187.788 86.7597L191.379 48.0935ZM193.589 101.858L205.289 64.8335L196.819 62.1503L185.118 99.1745L193.589 101.858ZM128.975 193.747L163.687 211.078L165.437 207.554L130.726 190.223L128.975 193.747ZM112.825 193.898L142.906 218.417L145.536 215.183L115.455 190.664L112.825 193.898ZM81.8931 183.595L98.5439 218.667L102.734 216.675L86.0833 181.603L81.8931 183.595ZM96.5338 190.423L120.445 221L123.915 218.287L100.004 187.71L96.5338 190.423ZM53.1617 104.651L49.1715 100.096L20 125.686L23.9902 130.242L53.1617 104.641V104.651ZM179.638 159.216L180.778 161.99L216.67 147.252L215.53 144.479L179.648 159.216H179.638ZM158.387 183.445L197.149 184.827L197.269 181.363L158.507 179.981L158.387 183.445ZM170.127 170.75L170.688 173.934L208.879 167.156L208.319 163.982L170.127 170.76V170.75ZM144.326 190.163L181.938 199.655L182.838 196.07L145.226 186.579L144.326 190.163ZM21.2901 103.4L24.3002 108.936L58.3719 90.374L55.3618 84.8374L21.2901 103.4ZM44.2812 186.208L49.5315 187.24L57.0018 149.134L51.7516 148.103L44.2812 186.208ZM47.4114 132.845L32.0106 168.487L37.1409 170.71L52.5416 135.067L47.4114 132.845ZM69.3425 173.954L78.1329 211.779L82.8831 210.678L74.0927 172.853L69.3425 173.954ZM59.182 161.97L59.852 200.796L64.9622 200.706L64.2922 161.879L59.182 161.97ZM27.2504 82.4546L29.0705 88.7321L66.3323 77.9292L64.5122 71.6517L27.2504 82.4546Z" fill="white"/>
</svg>
